<!DOCTYPE svg PUBLIC "-//W3C//DTD SVG 1.1//EN" "http://www.w3.org/Graphics/SVG/1.1/DTD/svg11.dtd">
<!-- Uploaded to: SVG Repo, www.svgrepo.com, Transformed by: SVG Repo Mixer Tools -->
<svg version="1.1" id="Layer_1" xmlns="http://www.w3.org/2000/svg" xmlns:xlink="http://www.w3.org/1999/xlink" viewBox="0 0 512 512" xml:space="preserve" width="199px" height="199px" fill="#000000">
<g id="SVGRepo_bgCarrier" stroke-width="0"/>
<g id="SVGRepo_tracerCarrier" stroke-linecap="round" stroke-linejoin="round"/>
<g id="SVGRepo_iconCarrier"> <path style="fill:#ed0532;" d="M387.2,512H124.8c-6.56-0.16-11.84-5.44-12-12V12c0.16-6.56,5.44-11.84,12-12h262.4 c6.56,0.16,11.84,5.44,12,12v488C399.04,506.56,393.76,511.84,387.2,512z"/> <rect x="128" y="40.8" style="fill:#FFFFFF;" width="256" height="409.6"/> <g> <path style="fill:#BCBCBC;" d="M288,25.6h-64c-2.08,0.128-3.872-1.456-4-3.536c-0.008-0.152-0.008-0.312,0-0.464v-2.4 c-0.128-2.08,1.456-3.872,3.536-4c0.152-0.008,0.312-0.008,0.464,0h64c2.08-0.128,3.872,1.456,4,3.536 c0.008,0.152,0.008,0.312,0,0.464v2.4c0.128,2.08-1.456,3.872-3.536,4C288.312,25.608,288.152,25.608,288,25.6z"/> <path style="fill:#BCBCBC;" d="M288,481.6h-64c-2.08,0.128-3.872-1.456-4-3.536c-0.008-0.152-0.008-0.312,0-0.464v-2.4 c-0.128-2.08,1.456-3.872,3.536-4c0.152-0.008,0.312-0.008,0.464,0h64c2.08-0.128,3.872,1.456,4,3.536 c0.008,0.152,0.008,0.312,0,0.464v2.4C291.856,479.752,290.152,481.456,288,481.6z"/> </g> <g> <rect x="155.256" y="206.312" style="fill:#ed0532;" width="78.576" height="78.576"/> <rect x="155.256" y="324.224" style="fill:#ed0532;" width="78.576" height="78.576"/> </g> <rect id="SVGCleanerId_0" x="255.704" y="223.632" style="fill:#999999;" width="101.04" height="8"/> <rect id="SVGCleanerId_1" x="255.704" y="253.8" style="fill:#999999;" width="64.24" height="8"/> <g> <rect id="SVGCleanerId_0_1_" x="255.704" y="223.632" style="fill:#999999;" width="101.04" height="8"/> </g> <g> <rect id="SVGCleanerId_1_1_" x="255.704" y="253.8" style="fill:#999999;" width="64.24" height="8"/> </g> <g> <rect x="255.704" y="341.552" style="fill:#999999;" width="101.04" height="8"/> <rect x="255.704" y="371.68" style="fill:#999999;" width="64.24" height="8"/> <rect x="255.704" y="105.728" style="fill:#999999;" width="101.04" height="8"/> <rect x="255.704" y="135.888" style="fill:#999999;" width="64.24" height="8"/> </g> <rect x="155.256" y="88.4" style="fill:#ed0532;" width="78.576" height="78.576"/> <g> <rect x="155.256" y="88.4" style="fill:#ed0532;" width="21.44" height="78.576"/> <rect x="155.256" y="206.312" style="fill:#ed0532;" width="21.44" height="78.576"/> <rect x="155.256" y="324.224" style="fill:#ed0532;" width="21.44" height="78.576"/> </g> </g>
</svg>